<svg version="1.1" id="Capa_1" xmlns="http://www.w3.org/2000/svg" x="0" y="0" viewBox="0 0 500 500" xml:space="preserve"><style>.st3{fill:#46c1a9}.st5{fill:#878787}.st6{fill:#575756}.st7{fill:none}</style><ellipse cx="290.3" cy="400.8" rx="174.2" ry="16.7" opacity=".5" fill="#b6b4b1"/><path fill="#ffcc1b" stroke="#575756" stroke-width="9.104" stroke-linecap="round" stroke-linejoin="round" stroke-miterlimit="10" d="M36.7 93.4h185.6v185.5H36.7z"/><path fill="none" stroke="#fff" stroke-width="10.583" stroke-linecap="round" stroke-linejoin="round" stroke-miterlimit="10" d="M46.6 269V103.4h165.7"/><path class="st3" d="M129.5 125.7c-22.4 0-40.6 18.2-40.6 40.6 0 8.5 2.7 16.7 7.7 23.7l1.1 1.5 21.1 29.8s2.6 4.2 8.2 4.2h5c5.6 0 8.2-4.2 8.2-4.2l21.2-29.8 1.1-1.5c5-7 7.7-15.2 7.7-23.7-.1-22.4-18.3-40.6-40.7-40.6m16.7 52.6l-1.1 1.6-15.6 22-15.6-22-1.1-1.6c-2.6-3.6-3.9-7.7-3.9-12 0-11.4 9.3-20.6 20.6-20.6s20.6 9.2 20.6 20.6c0 4.4-1.3 8.5-3.9 12M118.1 243.9c0-6.2 4.8-11.2 11.3-11.2 6.5 0 11.3 4.9 11.3 11v.1c0 6-4.8 11-11.4 11-6.5.1-11.2-4.8-11.2-10.9"/><path d="M237.5 241.3c0 3-2.5 5.5-5.5 5.5h0c-3 0-5.5-2.5-5.5-5.5v-10c0-3 2.5-5.5 5.5-5.5h0c3.1 0 5.5 2.5 5.5 5.5v10z" fill="#b5b5b5" stroke="#575756" stroke-width="3.337" stroke-linecap="round" stroke-linejoin="round" stroke-miterlimit="10"/><path class="st5" d="M181.9 404.8c-33.2 0-60.2-27-60.2-60.2s27-60.2 60.2-60.2 60.2 27 60.2 60.2-27 60.2-60.2 60.2zm0-102.3c-23.2 0-42.1 18.9-42.1 42.1 0 23.2 18.9 42.1 42.1 42.1 23.2 0 42.1-18.9 42.1-42.1-.1-23.2-18.9-42.1-42.1-42.1z"/><path class="st6" d="M181.9 288.4c31 0 56.2 25.2 56.2 56.2 0 31-25.2 56.2-56.2 56.2-31 0-56.2-25.2-56.2-56.2-.1-31 25.2-56.2 56.2-56.2m0 102.3c25.4 0 46.1-20.7 46.1-46.1 0-25.4-20.7-46.1-46.1-46.1s-46.1 20.7-46.1 46.1c0 25.4 20.6 46.1 46.1 46.1m0-110.3c-35.4 0-64.2 28.8-64.2 64.2 0 35.4 28.8 64.2 64.2 64.2 35.4 0 64.2-28.8 64.2-64.2 0-35.4-28.8-64.2-64.2-64.2zm0 102.3c-21 0-38.1-17.1-38.1-38.1s17.1-38.1 38.1-38.1 38.1 17.1 38.1 38.1c-.1 21-17.2 38.1-38.1 38.1z"/><path class="st5" d="M399.9 404.8c-33.2 0-60.2-27-60.2-60.2s27-60.2 60.2-60.2 60.2 27 60.2 60.2-27 60.2-60.2 60.2zm0-102.3c-23.2 0-42.1 18.9-42.1 42.1 0 23.2 18.9 42.1 42.1 42.1 23.2 0 42.1-18.9 42.1-42.1 0-23.2-18.9-42.1-42.1-42.1z"/><path class="st6" d="M399.9 288.4c31 0 56.2 25.2 56.2 56.2 0 31-25.2 56.2-56.2 56.2-31 0-56.2-25.2-56.2-56.2 0-31 25.2-56.2 56.2-56.2m0 102.3c25.4 0 46.1-20.7 46.1-46.1 0-25.4-20.7-46.1-46.1-46.1-25.4 0-46.1 20.7-46.1 46.1 0 25.4 20.7 46.1 46.1 46.1m0-110.3c-35.4 0-64.2 28.8-64.2 64.2 0 35.4 28.8 64.2 64.2 64.2 35.4 0 64.2-28.8 64.2-64.2 0-35.4-28.8-64.2-64.2-64.2zm0 102.3c-21 0-38.1-17.1-38.1-38.1s17.1-38.1 38.1-38.1 38.1 17.1 38.1 38.1-17.1 38.1-38.1 38.1z"/><path class="st7" d="M280.3 348.3l2.4-2.8v-96.8h-45.2zM185.9 336.1l85.4 14.6-40.4-93.8zM361 253.7l-2.1-5h-76.2v96.8z"/><path d="M278.8 365.3h-.3c-.5 0-1.1 0-1.6-.2 0 0-99-17.3-99.1-17.3-4-.9-6.7-4.4-6.6-8.5 0-1.3.3-2.6.8-3.7l50.6-94c1-3.5 4.3-6 8-6h118.8l-2.7-6.4c-1-1.9-1.2-4.1-.6-6.1.6-2.1 2-3.9 4-5 1.2-.7 2.6-1 4-1 3 0 5.8 1.6 7.3 4.3.1.1.1.2.2.4l46.6 111.9c1 1.9 1.2 4.1.6 6.1-.6 2.1-2 3.9-4 5-1.2.7-2.6 1-4 1-3 0-5.8-1.6-7.3-4.3-.1-.1-.1-.2-.2-.4L364 270.3l-78.6 92.1c-1.6 1.8-3.8 2.8-6.1 2.8h-.2c0 .1-.2.1-.3.1zM265.3 346l-34.9-81.1-38.9 68.5 73.8 12.6zm16-4.4l75.5-88.5-.3-.7H242.9l38.4 89.2z" fill="#ea5353"/><path class="st6" d="M354.3 220.7c1.7 0 3.3.9 4.1 2.4l46.7 112.1c1.3 2.3.4 5.2-1.8 6.4-.7.4-1.5.6-2.3.6-1.7 0-3.3-.9-4.1-2.4l-31.8-76.3-82.4 96.6c-.9 1-2.2 1.6-3.4 1.6h-.7c-.3 0-.6 0-.9-.1l-99-17.3c-2.3-.5-3.9-2.6-3.7-4.9 0-.7.1-1.5.5-2.2l50.7-94.1c0-.1.1-.1.1-.2.4-2.2 2.3-3.8 4.6-3.8H355l-4.8-11.5c-1.3-2.3-.4-5.2 1.8-6.4.8-.3 1.5-.5 2.3-.5m-74 127.6l2.4-2.8 78.3-91.8-2.1-5H237.5l42.8 99.6m-9 2.4L231 256.9l-45 79.3 85.3 14.5m83-137.2c-2 0-4 .5-5.8 1.5-2.8 1.5-4.8 4.1-5.7 7.2-.8 2.9-.5 6 .8 8.6l.5 1.3H230.7c-5.2 0-9.8 3.4-11.4 8.3L169 333.8c0 .1-.1.2-.1.2-.8 1.6-1.2 3.4-1.2 5.2-.2 5.8 3.7 10.8 9.4 12.1.1 0 .2 0 .3.1l98.9 17.2c.7.1 1.5.2 2.2.2H279.4c3.3-.1 6.4-1.6 8.6-4l.1-.1 74.8-87.6 27.3 65.5c.1.3.2.5.4.7 2.1 3.8 6.1 6.1 10.4 6.1 2 0 4-.5 5.8-1.5 2.8-1.6 4.8-4.1 5.7-7.2.8-2.9.5-6-.8-8.6l-46.6-111.8c-.1-.2-.2-.5-.4-.7-2-3.7-6-6.1-10.4-6.1zm-105.9 42.4h101.3l-67.3 78.9-34-78.9zm-51.2 74.9L230 273l29.4 68.3-62.2-10.5z"/><path d="M280.2 357.9c-.3.3-.7.4-1 .4h0-.4-.6" fill="none" stroke="#fff" stroke-width="1.669" stroke-linecap="round" stroke-linejoin="round" stroke-miterlimit="10"/><g><path d="M257.1 226.1c0 4.6-3.7 8.3-8.3 8.3h-38.3c-4.6 0-8.3-3.7-8.3-8.3h0c0-4.6 3.7-8.3 8.3-8.3h38.3c4.6 0 8.3 3.7 8.3 8.3h0z" fill="#878787" stroke="#575756" stroke-width="7.49" stroke-linecap="round" stroke-linejoin="round" stroke-miterlimit="10"/></g><g><path class="st5" d="M394.4 245c-4.2 0-7.6-3.4-7.6-7.6 0-4.1-2.8-7.6-6.9-8.6-1.1.5-2.2.7-3.3.7h-28.1c-4.9 0-8.8-3.9-8.8-8.8s4-8.8 8.8-8.8h28.1c.9 0 1.6.2 2.1.3 14.9 1.7 23.4 9.8 23.4 22.2 0 .3 0 .6-.1.9.1.7.1 1.4.1 2.1 0 4.2-3.5 7.6-7.7 7.6z"/><path class="st6" d="M373 215.6h3.7c.5 0 .9.1 1.3.3 7.9.8 20.4 4.3 20.4 18.5l-.3-.3c.2 1.1.3 2.2.3 3.3 0 2.1-1.7 3.9-3.9 3.9s-3.9-1.7-3.9-3.9c0-6.5-4.9-11.7-11.2-12.5-.8.5-1.7.9-2.7.9h-28.1c-2.8 0-5.1-2.3-5.1-5.1s2.3-5.1 5.1-5.1h23.1 1.3m0-7.5h-24.5c-6.9 0-12.6 5.6-12.6 12.5s5.6 12.5 12.6 12.5h28.1c1.1 0 2.2-.2 3.3-.5 1.9.8 3.1 2.6 3.1 4.7 0 6.3 5.1 11.4 11.4 11.4 6.3 0 11.4-5.1 11.4-11.4 0-.7 0-1.3-.1-1.9.1-.4.1-.7.1-1.1 0-14.2-9.9-23.9-26.4-25.9-.7-.2-1.7-.4-2.8-.4h-2.1c-.6.1-1.1.1-1.5.1z"/></g><g><path class="st5" d="M278 380.1c-13.2 0-23.9-10.7-23.9-23.9s10.7-23.9 23.9-23.9c1.8 0 3.7.2 5.6.7 10.8 2.6 18.3 12.1 18.3 23.2s-7.5 20.6-18.3 23.2c-1.9.5-3.8.7-5.6.7z"/><path class="st6" d="M278 336.1c1.6 0 3.2.2 4.7.6 8.8 2.1 15.4 10.1 15.4 19.5 0 9.5-6.6 17.4-15.4 19.5-1.5.4-3.1.6-4.7.6-11.1 0-20.1-9-20.1-20.1 0-11 9-20.1 20.1-20.1m0-7.4c-15.2 0-27.6 12.4-27.6 27.6 0 15.2 12.4 27.6 27.6 27.6 2.1 0 4.3-.3 6.5-.8 12.4-3 21.1-14 21.1-26.8s-8.7-23.8-21.1-26.8c-2.2-.6-4.4-.8-6.5-.8z"/></g><g><path class="st5" d="M399.9 360.8c-9.8 0-17.8-8-17.8-17.8s8-17.8 17.8-17.8 17.8 8 17.8 17.8-8 17.8-17.8 17.8z"/><path class="st6" d="M399.9 329.7c7.3 0 13.3 5.9 13.3 13.3 0 7.3-5.9 13.3-13.3 13.3-7.3 0-13.3-6-13.3-13.3 0-7.4 5.9-13.3 13.3-13.3m0-9.1c-12.3 0-22.4 10-22.4 22.4 0 12.3 10 22.4 22.4 22.4 12.3 0 22.4-10 22.4-22.4 0-12.4-10.1-22.4-22.4-22.4z"/></g><g><path class="st5" d="M181.9 360.8c-9.8 0-17.8-8-17.8-17.8s8-17.8 17.8-17.8 17.8 8 17.8 17.8-8 17.8-17.8 17.8z"/><path class="st6" d="M181.9 329.7c7.3 0 13.3 5.9 13.3 13.3 0 7.3-5.9 13.3-13.3 13.3s-13.3-6-13.3-13.3c0-7.4 5.9-13.3 13.3-13.3m0-9.1c-12.3 0-22.4 10-22.4 22.4 0 12.3 10 22.4 22.4 22.4 12.3 0 22.4-10 22.4-22.4-.1-12.4-10.1-22.4-22.4-22.4z"/></g></svg>