<svg version="1.1" id="Capa_1" xmlns="http://www.w3.org/2000/svg" x="0" y="0" viewBox="0 0 500 500" xml:space="preserve"><style>.st5{fill:#46c1a9}.st6,.st7{stroke-miterlimit:10}.st6{stroke-linecap:round;stroke-linejoin:round;fill:#fff;stroke:#595b5c;stroke-width:9.3876}.st7{fill:#b6b4b1;stroke:#575756;stroke-width:9.2319}</style><ellipse cx="241.7" cy="429.5" rx="180.5" ry="19.6" opacity=".5" fill="#b6b4b1"/><path d="M408.9 308.3l-72.7-6.6-39.8-66.4c-2.6-4.4-7.4-7.1-12.5-7.1H167.6c-5.5 0-10.5 3.1-13 8L122.2 301H94.8c-8 0-14.5 6.5-14.5 14.5v58.2c0 8 6.5 14.5 14.5 14.5h312.8c8 0 14.5-6.5 14.5-14.5v-50.9c0-7.5-5.7-13.8-13.2-14.5z" fill="#789cd6" stroke="#575756" stroke-width="9.232" stroke-linecap="round" stroke-linejoin="round" stroke-miterlimit="10"/><path fill="#94d8ed" stroke="#575756" stroke-width="9.232" stroke-linecap="round" stroke-linejoin="round" stroke-miterlimit="10" d="M154.7 301l21.9-43.7h99.1l26.2 43.7z"/><path fill="#ffcc1b" stroke="#575756" stroke-width="9.229" stroke-linecap="round" stroke-linejoin="round" stroke-miterlimit="10" d="M129.7 39.7h188.1v188H129.7z"/><path fill="none" stroke="#fff" stroke-width="10.729" stroke-linecap="round" stroke-linejoin="round" stroke-miterlimit="10" d="M139.8 217.6V49.7h168"/><path class="st5" d="M223.8 72.4c-22.7 0-41.2 18.5-41.2 41.2 0 8.6 2.7 17 7.8 24l1.1 1.5 21.4 30.3s2.6 4.3 8.3 4.3H226.3c5.7 0 8.3-4.3 8.3-4.3l21.4-30.3 1.1-1.5c5.1-7.1 7.8-15.4 7.8-24 .1-22.7-18.4-41.2-41.1-41.2m17 53.3l-1.1 1.6-15.8 22.3-15.8-22.3-1.2-1.6c-2.6-3.6-4-7.8-4-12.2 0-11.5 9.4-20.9 20.9-20.9s20.9 9.4 20.9 20.9c0 4.5-1.4 8.7-3.9 12.2M212.2 192.2c0-6.2 4.9-11.3 11.5-11.3s11.4 5 11.4 11.2v.1c0 6.1-4.9 11.2-11.5 11.2-6.5-.1-11.4-5.1-11.4-11.2"/><path class="st6" d="M190.6 387.8c.3 22.4-17.7 40.7-40 41-22.4.3-40.7-17.7-41-40-.3-22.4 17.7-40.7 40-41 22.4-.3 40.7 17.6 41 40z"/><path class="st7" d="M168.6 388.1c.1 10.2-8 18.5-18.2 18.6-10.2.1-18.5-8-18.6-18.2-.1-10.2 8-18.5 18.2-18.6 10.1-.2 18.5 8 18.6 18.2z"/><path class="st6" d="M372.3 387.8c.3 22.4-17.7 40.7-40 41-22.4.3-40.7-17.7-41-40-.3-22.4 17.7-40.7 40-41 22.4-.3 40.7 17.6 41 40z"/><path class="st7" d="M350.2 388.1c.1 10.2-8 18.5-18.2 18.6-10.2.1-18.5-8-18.6-18.2-.1-10.2 8-18.5 18.2-18.6 10.2-.2 18.5 8 18.6 18.2z"/><path d="M104.4 341.7H88.2c-6.6 0-12-5.4-12-12v.7c0-6.6 5.4-12 12-12h16.3c6.6 0 12 5.4 12 12v-.7c-.1 6.6-5.5 12-12.1 12z" fill="#f7866f" stroke="#575756" stroke-width="9.232" stroke-linecap="round" stroke-linejoin="round" stroke-miterlimit="10"/><path d="M284 333h-29c-3.9 0-7.1-3.2-7.1-7.1 0-3.9 3.2-7.1 7.1-7.1h29c3.9 0 7.1 3.2 7.1 7.1 0 3.9-3.2 7.1-7.1 7.1z" fill="#5a7daf"/><circle cx="411.7" cy="323.1" r="14.4" fill="#f9d56e" stroke="#575756" stroke-width="9.232" stroke-linecap="round" stroke-linejoin="round" stroke-miterlimit="10"/></svg>