<svg version="1.1" id="Capa_1" xmlns="http://www.w3.org/2000/svg" x="0" y="0" viewBox="0 0 500 500" xml:space="preserve"><style>.st2{fill:#fff;stroke:#595b5c;stroke-width:9.3876;stroke-linecap:round;stroke-linejoin:round;stroke-miterlimit:10}.st4{fill:#575756}.st6,.st7{stroke:#575756;stroke-width:9.2319;stroke-miterlimit:10}.st6{stroke-linecap:round;stroke-linejoin:round;fill:#94d8ed}.st7{fill:#b6b4b1}.st9{fill:#46c1a9}</style><ellipse cx="294.4" cy="384.6" rx="166.6" ry="17.5" opacity=".5" fill="#b6b4b1"/><path fill="#ffcc1b" stroke="#575756" stroke-width="9.229" stroke-linecap="round" stroke-linejoin="round" stroke-miterlimit="10" d="M21 100.7h188.1v188H21z"/><path class="st2" d="M276 344.2c.3 22.8-18 41.5-40.8 41.8-22.8.3-41.5-18-41.8-40.8-.3-22.8 18-41.5 40.8-41.8 22.9-.3 41.6 18 41.8 40.8z"/><path d="M327.3 190.8c-6.5 0-11.8-5.3-11.9-11.7 0-3.2 1.2-6.2 3.4-8.4 2.2-2.3 5.2-3.5 8.4-3.6l28.1-.3c6.5 0 11.8 5.3 11.9 11.7.1 6.5-5.2 11.9-11.7 12l-28.2.3z" fill="#b6b4b1"/><path class="st4" d="M355.3 171.3c4 0 7.2 3.2 7.3 7.2 0 4-3.2 7.3-7.2 7.3l-28 .3h-.1c-4 0-7.2-3.2-7.3-7.2 0-4 3.2-7.3 7.2-7.3l28.1-.3c-.1 0 0 0 0 0m0-9.2h-.2l-28 .3c-4.4.1-8.5 1.8-11.6 5-3.1 3.1-4.7 7.3-4.7 11.7.1 9 7.5 16.3 16.5 16.3h.2l28-.3c4.4-.1 8.5-1.8 11.6-5 3.1-3.2 4.7-7.3 4.7-11.7-.1-9-7.5-16.3-16.5-16.3z"/><path d="M405.4 178.4c.1 9.4-7.4 17-16.8 17.1-9.4.1-17-7.4-17.1-16.8-.1-9.4 7.4-17 16.8-17.1 9.3 0 17 7.5 17.1 16.8z" fill="#f9d56e" stroke="#575756" stroke-width="9.232" stroke-linecap="round" stroke-linejoin="round" stroke-miterlimit="10"/><path class="st6" d="M400.5 276.5l-19.4-78.8-30.4-11.8 7.7 87.5-49 32.1-35.2.8c-10.3.1-18.6 8.6-18.5 18.9.1 10.3 8.6 18.6 18.9 18.5l70.1-1c10.3-.1 18.6-8.6 18.5-18.9-.1-4.4-1.7-8.5-4.3-11.7l12-30.9 29.6-4.7z"/><path class="st2" d="M447.1 341.8c.3 22.8-18 41.5-40.8 41.8-22.8.3-41.5-18-41.8-40.8-.3-22.8 18-41.5 40.8-41.8 22.8-.3 41.5 18 41.8 40.8z"/><path class="st7" d="M424.6 342.1c.1 10.4-8.2 18.9-18.6 19-10.4.1-18.9-8.2-19-18.6-.1-10.4 8.2-18.9 18.6-19 10.4-.1 18.9 8.2 19 18.6zM253.6 344.5c.1 10.4-8.2 18.9-18.6 19-10.4.1-18.9-8.2-19-18.6-.1-10.4 8.2-18.9 18.6-19 10.3-.1 18.8 8.2 19 18.6z"/><path class="st6" d="M377.8 277.4c-29.6 11.6-44.1 45.1-32.5 74.6l107.1-42.2c-11.6-29.6-45-44.1-74.6-32.4zM387.6 202.2l-40.1-6.8-.4-30.3 40-7.7zM203.9 268.1l87.6-1 .6 55.8-113 1.3z"/><path fill="none" stroke="#fff" stroke-width="10.729" stroke-linecap="round" stroke-linejoin="round" stroke-miterlimit="10" d="M31.1 278.6V110.7h168"/><g><path class="st9" d="M115.1 133.4c-22.7 0-41.2 18.5-41.2 41.2 0 8.6 2.7 17 7.8 24l1.1 1.5 21.4 30.3s2.6 4.3 8.3 4.3H117.6c5.7 0 8.3-4.3 8.3-4.3l21.4-30.3 1.1-1.5c5.1-7.1 7.8-15.4 7.8-24 .1-22.7-18.4-41.2-41.1-41.2m17 53.3l-1.1 1.6-15.8 22.3-15.8-22.3-1.2-1.6c-2.6-3.6-4-7.8-4-12.2 0-11.5 9.4-20.9 20.9-20.9S136 163 136 174.5c0 4.5-1.4 8.7-3.9 12.2M103.5 253.2c0-6.2 4.9-11.3 11.5-11.3s11.4 5 11.4 11.2v.1c0 6.1-4.9 11.2-11.5 11.2-6.5-.1-11.4-5.1-11.4-11.2"/></g><g><path d="M182.1 321.4c-.5 0-1-.1-1.5-.3l-13.3-4.7c-1.2-.4-2.2-1.3-2.7-2.5s-.5-2.5 0-3.7l9.9-23.4c.7-1.8 2.4-2.8 4.3-2.8.5 0 .9.1 1.4.2l14.2 4.5c1.3.4 2.3 1.3 2.8 2.5a5 5 0 010 3.8l-10.7 23.7c-.9 1.7-2.6 2.7-4.4 2.7z" fill="#f9d56e"/><path class="st4" d="M178.7 288.7l14.2 4.5-10.7 23.7-13.3-4.7 9.8-23.5m0-9.3c-3.6 0-7 2.1-8.5 5.6l-9.9 23.4c-1 2.3-1 5 .1 7.3 1 2.3 3 4.1 5.4 5l13.3 4.7c1 .4 2 .5 3.1.5 3.5 0 6.9-2 8.4-5.4l10.7-23.7c1.1-2.4 1.1-5.2 0-7.6-1.1-2.4-3.1-4.2-5.7-5l-14.2-4.5c-.9-.1-1.8-.3-2.7-.3z"/></g><path class="st7" d="M319.2 253.5c.1 9.4-7.4 17.1-16.8 17.2l-94.6 1.1c-9.4.1-17.1-7.4-17.2-16.8-.1-9.4 7.4-17.1 16.8-17.2l94.6-1.1c9.4-.1 17.1 7.4 17.2 16.8z"/><g><path class="st6" d="M235.5 282.8c-33.9.9-60.7 29-59.8 62.9l122.8-3.1c-.9-33.9-29.1-60.7-63-59.8z"/></g></svg>