<svg version="1.1" id="Capa_1" xmlns="http://www.w3.org/2000/svg" x="0" y="0" viewBox="0 0 500 500" xml:space="preserve"><style>.st2{fill:#46c1a9}.st3,.st4{fill:#789cd6;stroke:#575756;stroke-width:9.2319;stroke-linecap:round;stroke-linejoin:round;stroke-miterlimit:10}.st4{fill:none}</style><path fill="#ffcc1b" stroke="#575756" stroke-width="9.22927687" stroke-linecap="round" stroke-linejoin="round" stroke-miterlimit="10" d="M75.583 278.483l1.219-149.5 149.6 1.22-1.22 149.5z"/><path fill="none" stroke="#fff" stroke-width="10.729" stroke-linecap="round" stroke-linejoin="round" stroke-miterlimit="10" d="M87.6 267.6l1-126.5 124.3 1"/><path class="st2" d="M151.4 155.6c-18.1-.1-32.9 14.4-33 32.5-.1 6.8 2 13.5 6 19.1l.9 1.2 16.8 24.2s2 3.4 6.6 3.5h4c4.5 0 6.6-3.4 6.6-3.4l17.2-24 .9-1.2c4.1-5.6 6.3-12.2 6.4-19 .2-17.9-14.4-32.7-32.4-32.9m13.2 42.5l-.9 1.3L151 217l-12.4-17.8-.9-1.3c-2-2.9-3.1-6.2-3.1-9.7.1-9.1 7.6-16.6 16.8-16.5 9.1.1 16.6 7.6 16.5 16.8-.2 3.5-1.3 6.8-3.3 9.6M141.4 250.8c0-4.9 4-9 9.2-8.9 5.2 0 9 4 9 9v.1c0 4.9-4 8.9-9.2 8.8-5.2-.1-9.1-4.1-9-9"/><path class="st3" d="M281.2 119.7c21.8.1 39.5-17.5 39.6-39.3.1-21.8-17.5-39.5-39.3-39.6-21.8-.1-39.5 17.5-39.6 39.3-.1 21.8 17.4 39.5 39.3 39.6zM422.3 241.8c-2.5-11.6-14-18.9-25.6-16.4-26.4 5.8-49.2 8.6-62.2-2-8.2-6.7-14.1-16.9-17.6-30.3-2.9-11.2-2.8-20.3-2.8-20.4v.1-1.7c.1-18.1-14.5-32.8-32.6-32.9-18.1-.1-32.8 14.5-32.8 32.6l-.2 36-.1 32.7-.2 35.9-3.2 7.2L191.4 425c-4.6 10.3.1 22.4 10.4 27 10.3 4.6 22.4-.1 27-10.4l43.5-100.5 8.7-19.7 58 119c5 10.1 17.2 14.3 27.3 9.4 10.1-5 14.3-17.2 9.4-27.4l-62-143.5.2-24.7c23.3 17 54.2 21.5 92.1 13.1 1.6-.3 3-.8 4.4-1.5 8.9-4 14.1-14 11.9-24z"/><path class="st4" d="M289.2 338.4L274 306M313.9 254.2s-39.6-20.4-39.6-67.9"/></svg>