<svg width="32" height="32" viewBox="0 0 69 61" fill="none" xmlns="http://www.w3.org/2000/svg">
<path opacity="0.16" d="M62.618 11.3208C67.5897 18.1174 68.3473 27.2739 67.1951 35.2819C66.043 43.2898 62.981 50.1493 58.0094 54.2871C53.0377 58.4405 46.1562 59.8565 38.7855 60.3442C31.4306 60.8319 23.5706 60.3599 16.4524 56.2222C9.31848 52.0845 2.91054 44.2495 2.67379 36.1944C2.42126 28.1234 8.35571 19.8165 15.4739 13.02C22.6079 6.23914 30.9413 0.952925 39.701 0.52814C48.4606 0.103355 57.6463 4.52427 62.618 11.3208Z" fill="#E19F17"/>
<ellipse opacity="0.15" cx="54.1383" cy="50.3354" rx="12.775" ry="3.48778" fill="#7E7E7F"/>
<path d="M54.1384 20.9326C48.5418 20.9732 43.9995 25.4748 43.959 31.1121C43.9995 33.586 44.5268 35.9787 45.4595 38.2093C46.3112 40.3182 47.4062 42.3054 48.6634 44.2521C50.0423 46.3204 51.624 48.2671 53.3679 50.0515C53.5301 50.2137 53.814 50.376 54.0979 50.376C54.3818 50.376 54.6251 50.2543 54.8684 50.0515C56.6123 48.2671 58.194 46.361 59.5729 44.2521C60.8707 42.3865 61.9251 40.3587 62.7768 38.2093C63.7095 35.9382 64.2368 33.5048 64.2368 31.0715C64.2773 25.4748 59.6945 20.9732 54.1384 20.9326Z" fill="#FFD731" stroke="#565655" stroke-width="0.811111" stroke-linecap="round" stroke-linejoin="round"/>
<path d="M47.4864 39.5062C47.2025 38.9384 46.9186 38.33 46.6753 37.7623C45.7425 35.6128 45.2964 33.3012 45.2559 30.9895C45.2964 26.1228 49.2303 22.2295 54.1375 22.2295C55.922 22.2295 57.382 22.8378 57.382 22.8378" stroke="white" stroke-width="0.805433" stroke-linecap="round" stroke-linejoin="round"/>
<circle cx="54.1375" cy="30.909" r="4.58278" fill="white" stroke="#595958" stroke-width="0.805433" stroke-linecap="round" stroke-linejoin="round"/>
<path d="M12.3659 24.7446C12.3659 24.7446 10.1354 23.4468 8.87817 22.6762C6.20151 21.054 2.75428 23.8118 1.65928 25.9612C0.888728 27.5023 0.0370612 31.7607 3.88984 33.5857C4.98484 34.0723 8.75651 35.654 8.75651 35.654C8.75651 35.654 8.55373 39.7501 16.0971 42.954L25.9926 35.2484L29.1965 29.2868L27.6959 25.0284L25.0598 24.8662L20.4365 23.6496L14.1098 25.0284C13.5421 25.1501 12.8932 25.069 12.3659 24.7446Z" fill="#F2CC38" stroke="#585857" stroke-width="0.805433" stroke-linecap="round" stroke-linejoin="round"/>
<path d="M31.3457 29.2071L37.3479 26.3682L38.4835 28.6393L32.4813 31.5187L31.3457 29.2071Z" fill="#C1C1C1" stroke="#595958" stroke-width="0.805433" stroke-linecap="round" stroke-linejoin="round"/>
<path d="M43.9172 27.0173C56.2056 24.3001 62.9378 17.8923 65.0061 15.6617C66.0606 14.4856 65.3306 13.2284 66.3039 13.5528C66.9528 13.7962 67.3989 14.1612 67.6422 14.6478C68.8589 17.2434 63.1811 22.5156 54.9078 26.409C46.6345 30.3023 38.9695 31.3973 37.7528 28.7612C36.4956 26.1656 39.1722 28.0312 43.9172 27.0173Z" fill="#C1C1C1" stroke="#595958" stroke-width="0.805433" stroke-linecap="round" stroke-linejoin="round"/>
<path d="M33.7383 31.3568L12.325 41.6174C11.4733 42.0229 10.4189 41.6579 10.0133 40.8063C9.60778 39.9546 9.97278 38.9001 10.8244 38.4946L32.2378 28.234C33.0894 27.8285 34.1439 28.1935 34.5494 29.0451C34.955 29.8968 34.59 30.9513 33.7383 31.3568Z" fill="#59A884" stroke="#595958" stroke-width="0.805433" stroke-linecap="round" stroke-linejoin="round"/>
<path d="M33.3316 30.5459L11.9182 40.8065C11.5127 41.0092 10.9855 40.8065 10.7827 40.4009C10.5799 39.9953 10.7827 39.4681 11.1882 39.2653" stroke="#59A884" stroke-width="0.805433" stroke-linecap="round" stroke-linejoin="round"/>
<path d="M67.6436 14.6479L66.1836 11.9307L67.6436 14.6479Z" fill="#C1C1C1"/>
<path d="M67.6436 14.6479L66.1836 11.9307" stroke="#595958" stroke-width="0.843718" stroke-linecap="round" stroke-linejoin="round"/>
<path d="M36.334 26.084L37.7534 28.9634L36.334 26.084Z" fill="#C1C1C1"/>
<path d="M36.334 26.084L37.7534 28.9634" stroke="#595958" stroke-width="0.805433" stroke-linecap="round" stroke-linejoin="round"/>
<path d="M39.456 27.3415C38.5638 25.4354 43.5521 21.1365 50.6493 17.7704C57.7466 14.4043 64.2354 13.2282 65.1277 15.1748L64.9654 15.6615C66.1416 14.2015 66.6282 12.9037 66.1821 11.971C64.9654 9.3754 57.2599 10.4298 49.0271 14.3232C40.7538 18.2165 35.1571 23.4887 36.2927 26.0843C36.9416 27.5037 39.456 27.3415 39.456 27.3415Z" fill="#D3D3D3" stroke="#595958" stroke-width="0.805433" stroke-linecap="round" stroke-linejoin="round"/>
<path d="M63.79 19.4727C61.5595 21.4193 58.2339 23.6093 54.5839 25.3532C48.9467 27.9893 43.9584 29.2871 40.6328 29.1249" stroke="white" stroke-width="0.805433" stroke-linecap="round" stroke-linejoin="round"/>
<g opacity="0.3">
<path d="M65.8578 11.8491C64.6411 9.29406 57.0978 10.3891 48.9461 14.3229C40.7133 18.2974 35.4006 23.3263 36.2928 25.6785C36.4956 26.1652 36.9822 26.4491 37.4689 26.6518C37.8339 26.7735 38.3206 26.8952 38.645 26.9357C39.0911 26.9763 39.6183 26.9357 39.74 26.9357C40.7945 26.9763 42.2545 26.9357 43.8361 26.6113C55.5567 24.0563 62.1267 18.1352 64.4383 15.7424C64.5195 15.6613 64.925 15.0935 65.0061 14.9718C65.4522 14.3635 65.9389 13.1468 65.9389 13.0252C66.1011 12.5791 66.02 12.1735 65.8578 11.8491Z" fill="#A3FFF8"/>
</g>
<path d="M65.3298 12.457C63.9915 10.3481 55.9615 12.2948 49.4321 15.2554C42.4565 18.4187 36.2515 23.6098 37.2654 25.7592" stroke="white" stroke-width="0.805433" stroke-linecap="round" stroke-linejoin="round"/>
<path d="M17.0698 45.104C17.5564 46.199 18.8136 46.7263 19.9086 46.2396L19.9898 46.199C21.0848 45.7124 21.612 44.4551 21.1253 43.3601L18.8136 38.169C18.327 37.074 17.0698 36.5468 15.9748 37.0335L15.8936 37.074C14.7986 37.5607 14.2714 38.8179 14.7581 39.9129L17.0698 45.104Z" fill="#F2CC38" stroke="#585857" stroke-width="0.805433" stroke-linecap="round" stroke-linejoin="round"/>
<path d="M16.3809 37.8842C16.9892 37.6003 17.7192 37.9248 17.9625 38.5331L20.2742 43.7648C20.3959 44.0486 20.3959 44.3731 20.2742 44.6975C20.1525 44.9814 19.9092 45.2248 19.6253 45.3464L19.5442 45.387" stroke="white" stroke-width="0.805433" stroke-linecap="round" stroke-linejoin="round"/>
<path d="M21.2046 43.6845C21.6913 44.9012 23.1107 45.4284 24.2868 44.9012L24.4085 44.8606C25.6251 44.374 26.1524 42.9545 25.6251 41.7784L23.1107 36.1412C22.624 34.9245 21.2046 34.3973 20.0285 34.9245L19.9068 34.9651C18.6901 35.4517 18.1629 36.8712 18.6901 38.0473L21.2046 43.6845Z" fill="#F2CC38" stroke="#585857" stroke-width="0.805433" stroke-linecap="round" stroke-linejoin="round"/>
<path d="M24.0057 43.9672C24.3301 43.8455 24.614 43.5616 24.7357 43.2372C24.8979 42.8722 24.8979 42.5072 24.7357 42.1422L22.2213 36.4644C22.2213 36.4644 21.7346 35.3289 20.7207 35.4505" stroke="white" stroke-width="0.805433" stroke-linecap="round" stroke-linejoin="round"/>
<path d="M25.4648 41.4531C25.9515 42.6697 27.3709 43.197 28.547 42.6697L28.6687 42.6292C29.8854 42.1425 30.4126 40.7231 29.8854 39.547L27.3709 33.9097C26.8843 32.6931 25.4648 32.1659 24.2887 32.6931H24.2076C22.9909 33.1797 22.4637 34.5992 22.9909 35.7753L25.4648 41.4531Z" fill="#F2CC38" stroke="#585857" stroke-width="0.805433" stroke-linecap="round" stroke-linejoin="round"/>
<path d="M25.748 33.5459C26.0725 33.6676 26.3564 33.9515 26.5186 34.2759L29.033 39.9537C29.1953 40.2781 29.1547 40.6837 29.033 41.0487C28.9114 41.3731 28.6275 41.6165 28.303 41.7787L28.1814 41.8192" stroke="white" stroke-width="0.805433" stroke-linecap="round" stroke-linejoin="round"/>
<path d="M29.7222 39.1826C30.2088 40.3992 31.6283 40.9265 32.8044 40.3992L32.9261 40.3587C34.1427 39.872 34.6699 38.4526 34.1427 37.2765L31.6283 31.6392C31.1416 30.4226 29.7222 29.8953 28.5461 30.4226L28.4244 30.4631C27.2077 30.9498 26.6805 32.3692 27.2077 33.5453L29.7222 39.1826Z" fill="#F2CC38" stroke="#585857" stroke-width="0.805433" stroke-linecap="round" stroke-linejoin="round"/>
<path d="M28.8301 31.3556L28.9517 31.315C29.2762 31.1528 29.6817 31.1528 30.0062 31.315C30.3306 31.4772 30.6145 31.7206 30.7767 32.045L33.2912 37.7228C33.4534 38.0472 33.4129 38.4528 33.2912 38.8178C33.1695 39.1422 32.8856 39.3856 32.5612 39.5478L32.4395 39.5884" stroke="white" stroke-width="0.805433" stroke-linecap="round" stroke-linejoin="round"/>
<path d="M9.36639 37.7628C8.96083 37.1139 8.27139 35.5322 9.32583 33.4639" stroke="#585857" stroke-width="0.805433" stroke-linecap="round" stroke-linejoin="round"/>
<path d="M23.0717 26.8941C24.0856 29.8547 26.6406 30.4225 26.6406 30.4225C25.1401 30.8686 24.2478 32.0041 23.7206 33.0586C23.1528 34.1941 23.5178 35.573 24.5317 36.3841L25.2212 36.9113C25.8295 37.398 26.6812 37.3169 27.2084 36.7491L30.8178 32.9369C32.0345 31.6391 32.1562 29.6519 31.1017 28.1919L28.2628 24.258C27.3706 23.0413 25.8701 22.4736 24.4101 22.798L16.8262 24.4608" fill="#F2CC38"/>
<path d="M23.0717 26.8941C24.0856 29.8547 26.6406 30.4225 26.6406 30.4225C25.1401 30.8686 24.2478 32.0041 23.7206 33.0586C23.1528 34.1941 23.5178 35.573 24.5317 36.3841L25.2212 36.9113C25.8295 37.398 26.6812 37.3169 27.2084 36.7491L30.8178 32.9369C32.0345 31.6391 32.1562 29.6519 31.1017 28.1919L28.2628 24.258C27.3706 23.0413 25.8701 22.4736 24.4101 22.798L16.8262 24.4608" stroke="#585857" stroke-width="0.805433" stroke-linecap="round" stroke-linejoin="round"/>
<path d="M10.1345 24.7045C8.30948 23.4067 7.0117 22.9606 5.63281 23.6095" stroke="white" stroke-width="0.805433" stroke-linecap="round" stroke-linejoin="round"/>
<path d="M25.1806 35.615L25.87 36.1422C26.0728 36.3045 26.3972 36.2639 26.5595 36.1017L30.0067 32.4111C30.2095 32.1678 30.4122 31.9245 30.5339 31.6C30.8989 30.7078 30.7772 29.6939 30.25 28.8828L27.4111 24.9489C26.7622 24.0567 25.6267 23.6106 24.5317 23.8539C24.5317 23.8539 15.2039 25.7195 14.0278 25.9628C13.7845 26.0033 13.5817 26.0033 13.3789 26.0033" stroke="white" stroke-width="0.805433" stroke-linecap="round" stroke-linejoin="round"/>
<path d="M51.1762 15.9433L51.9467 13.3478L54.5423 12.5772C54.7856 12.4961 54.7856 12.0094 54.5423 11.8878L51.9467 11.1172L51.1762 8.52165C51.1762 8.35943 51.014 8.35943 50.9329 8.27832C50.7706 8.27832 50.6895 8.35943 50.6895 8.52165L49.919 11.1172L47.3234 11.8878C47.1612 11.8878 47.1612 12.05 47.0801 12.1311C47.0801 12.2933 47.1612 12.3744 47.3234 12.3744L49.919 13.145L50.6895 15.7405C50.6895 15.9028 50.8517 15.9028 50.9329 15.9839C51.014 16.1055 51.0951 16.0244 51.1762 15.9433Z" fill="#FFD91D" stroke="#575756" stroke-width="0.83731" stroke-linecap="round" stroke-linejoin="round"/>
<path d="M44.9325 11.3611L43.0669 10.8339L42.5397 8.96835C42.4992 8.80612 42.1342 8.80612 42.053 8.96835L41.5258 10.8339L39.6603 11.3611C39.5386 11.3611 39.5386 11.4828 39.498 11.5233C39.498 11.645 39.5386 11.6856 39.6603 11.6856L41.5258 12.2128L42.053 14.0783C42.053 14.2 42.1747 14.2 42.2153 14.2406C42.3369 14.2406 42.3775 14.2 42.3775 14.0783L42.9047 12.2128L44.7703 11.6856C44.8919 11.6856 44.8919 11.5639 44.9325 11.5233C45.0542 11.4828 44.973 11.4017 44.9325 11.3611Z" fill="#FFD91D" stroke="#575756" stroke-width="0.811111" stroke-linecap="round" stroke-linejoin="round"/>
<path d="M41.8094 19.2283L39.9439 18.7011L39.4167 16.8355C39.3761 16.6733 39.0111 16.6733 38.93 16.8355L38.4028 18.7011L36.5372 19.2283C36.4156 19.2283 36.4156 19.35 36.375 19.3905C36.375 19.5122 36.4156 19.5528 36.5372 19.5528L38.4028 20.08L38.93 21.9455C38.93 22.0672 39.0517 22.0672 39.0922 22.1078C39.2139 22.1078 39.2544 22.0672 39.2544 21.9455L39.7817 20.08L41.6472 19.5528C41.7689 19.5528 41.7689 19.4311 41.8094 19.3905C41.9311 19.35 41.85 19.3094 41.8094 19.2283Z" fill="#FFD91D" stroke="#575756" stroke-width="0.811111" stroke-linecap="round" stroke-linejoin="round"/>
</svg>
