<?xml version="1.0" encoding="utf-8" standalone="no"?>
<svg width="28" height="28" viewBox="0 0 28 28" fill="none" xmlns="http://www.w3.org/2000/svg">
<path d="M0.723367 12.4129C1.4817 8.52788 5.4717 5.17955 9.80003 3.12622C14.2334 1.07288 18.9817 0.31455 22.12 2.04122C25.2584 3.76788 26.6584 8.09622 27.195 12.0862C27.7317 16.0879 27.4167 19.8679 25.4684 22.5629C23.52 25.1529 19.845 26.6695 16.1817 26.8795C12.5067 27.1012 8.6217 25.9112 5.48337 23.2045C2.34503 20.5212 -0.0349667 16.1929 0.723367 12.4129Z" fill="#FFF3DA"/>
<path fill-rule="evenodd" clip-rule="evenodd" d="M23.905 23.905L25.0483 23.2983L26.1917 23.905C26.3083 23.975 26.4717 23.8117 26.4017 23.695L25.8067 22.5517L26.4017 21.4083C26.4367 21.35 26.425 21.2683 26.3667 21.2217C26.32 21.175 26.25 21.1633 26.18 21.1867L25.0367 21.7933L23.8933 21.1867C23.835 21.1517 23.7533 21.1633 23.7067 21.2217C23.66 21.2683 23.6483 21.3383 23.6717 21.4083L24.2667 22.5517L23.6717 23.695C23.6367 23.7533 23.6483 23.835 23.7067 23.8817C23.765 23.9167 23.835 23.94 23.905 23.905Z" fill="#FFC244"/>
<path fill-rule="evenodd" clip-rule="evenodd" d="M23.5784 4.58513L24.395 4.69013L24.7684 5.42513C24.8034 5.5068 24.9434 5.48346 24.955 5.39013L25.06 4.5618L25.795 4.1768C25.795 4.1768 25.8534 4.11846 25.8534 4.0718C25.8534 4.0368 25.8067 3.99013 25.7717 3.99013L24.955 3.88513L24.5817 3.15013C24.5817 3.15013 24.5234 3.0918 24.4767 3.0918C24.4417 3.0918 24.395 3.13846 24.395 3.18513L24.29 4.01346L23.555 4.39846C23.555 4.39846 23.4967 4.4568 23.4967 4.50346C23.52 4.55013 23.5434 4.57346 23.59 4.58513H23.5784Z" fill="#FFC244"/>
<path fill-rule="evenodd" clip-rule="evenodd" d="M1.71497 25.4103L2.53163 25.5153L2.90497 26.2503C2.93997 26.332 3.07997 26.3087 3.09163 26.2153L3.19663 25.387L3.93163 25.002C3.93163 25.002 3.98997 24.9437 3.98997 24.897C3.98997 24.862 3.9433 24.8153 3.9083 24.8153L3.09163 24.7103L2.7183 23.9753C2.7183 23.9753 2.65997 23.917 2.6133 23.917C2.5783 23.917 2.53163 23.9637 2.53163 24.0103L2.42663 24.8387L1.69163 25.2237C1.69163 25.2237 1.6333 25.282 1.6333 25.3287C1.65663 25.3753 1.67997 25.3987 1.72663 25.4103H1.71497Z" fill="#FFC244"/>
<path d="M14.2917 15.1086L20.4167 7.50195L20.4051 17.162L14.2917 15.1086Z" fill="#E19F17" stroke="#4A4A4A" stroke-width="1.3"/>
<path d="M20.9184 7.35043C21.6529 7.35043 22.2484 6.75497 22.2484 6.02043C22.2484 5.28589 21.6529 4.69043 20.9184 4.69043C20.1838 4.69043 19.5884 5.28589 19.5884 6.02043C19.5884 6.75497 20.1838 7.35043 20.9184 7.35043Z" fill="#4A4A4A"/>
<path d="M11.5967 14.5488L8.98339 5.14551L5.18005 14.0238L11.5967 14.5488Z" fill="#E19F17" stroke="#4A4A4A" stroke-width="1.3"/>
<path d="M9.10002 4.92367C9.83456 4.92367 10.43 4.32821 10.43 3.59367C10.43 2.85913 9.83456 2.26367 9.10002 2.26367C8.36548 2.26367 7.77002 2.85913 7.77002 3.59367C7.77002 4.32821 8.36548 4.92367 9.10002 4.92367Z" fill="#4A4A4A"/>
<path d="M11.3634 22.7153L18.4917 24.1853C18.8534 24.2553 19.215 24.0219 19.2967 23.6603L19.8684 20.8719L24.4184 11.7603L20.1717 14.3619C18.8067 15.2019 17.0334 14.4436 16.6717 12.8919L14.945 5.30859L10.36 11.5969C9.41503 12.8919 7.49003 12.8686 6.56836 11.5736L3.69836 7.50193L4.2817 17.6636L3.71003 20.4519C3.64003 20.8136 3.87336 21.1753 4.23503 21.2569L11.3634 22.7269V22.7153Z" fill="#FFC244" stroke="#4A4A4A" stroke-width="1.3"/>
<path d="M15.365 4.66684C16.0996 4.66684 16.695 4.07137 16.695 3.33684C16.695 2.6023 16.0996 2.00684 15.365 2.00684C14.6305 2.00684 14.035 2.6023 14.035 3.33684C14.035 4.07137 14.6305 4.66684 15.365 4.66684Z" fill="#4A4A4A"/>
<path d="M26.1333 11.3289C26.8679 11.3289 27.4633 10.7335 27.4633 9.99895C27.4633 9.26441 26.8679 8.66895 26.1333 8.66895C25.3988 8.66895 24.8033 9.26441 24.8033 9.99895C24.8033 10.7335 25.3988 11.3289 26.1333 11.3289Z" fill="#4A4A4A"/>
<path d="M2.81169 6.52231C3.54623 6.52231 4.14169 5.92684 4.14169 5.1923C4.14169 4.45777 3.54623 3.8623 2.81169 3.8623C2.07715 3.8623 1.48169 4.45777 1.48169 5.1923C1.48169 5.92684 2.07715 6.52231 2.81169 6.52231Z" fill="#4A4A4A"/>
<path d="M12.8334 18.1181C14.2251 18.1181 15.3534 16.9899 15.3534 15.5981C15.3534 14.2064 14.2251 13.0781 12.8334 13.0781C11.4416 13.0781 10.3134 14.2064 10.3134 15.5981C10.3134 16.9899 11.4416 18.1181 12.8334 18.1181Z" fill="#00A082"/>
<path d="M2.11169 17.6982L21.665 21.7232" stroke="#4A4A4A" stroke-width="1.3" stroke-linecap="round"/>
</svg>
